<svg id="filled_outline" enable-background="new 0 0 512 512" height="512" viewBox="0 0 512 512" width="512" xmlns="http://www.w3.org/2000/svg"><path d="m336 128-32 72v48h-96v-48l-32-72 80-40-40 48 24 32h32l24-32-40-48z" fill="#aedef8"/><path d="m312 392-24-24-32-88-32 88-24 24 8-128v-16h96v16z" fill="#00587e"/><path d="m248 168-4.8621521-24.31073c-1.6233063-8.1165924 4.5847931-15.68927 12.8621368-15.68927h.0000458c8.2773132 0 14.4854431 7.5726776 12.8621216 15.68927l-4.8621521 24.31073z" fill="#feea01"/><path d="m256 168-16 56 16 24 16-24z" fill="#00a8e7"/><path d="m472 200v32l-40 72v48h-96v-48l-32-72v-32l64 72h32z" fill="#aedef8"/><path d="m448 456h-16l-48-72-32 32h-16v-64h96v16z" fill="#00587e"/><path d="m392 272 4.8621521-24.31073c1.6233215-8.1165924-4.5848083-15.68927-12.8621216-15.68927h-.000061c-8.2773132 0-14.4854431 7.5726776-12.8621216 15.68927l4.8621521 24.31073z" fill="#feea01"/><path d="m384 272 16 56-16 24-16-24z" fill="#00a8e7"/><path d="m208 200v32l-32 72v48h-96v-48l-40-72v-32l72 72h32z" fill="#aedef8"/><path d="m176 352v64h-16l-32-32-48 72h-16l16-88v-16z" fill="#00587e"/><path d="m120 272-4.8621445-24.31073c-1.6233215-8.1165924 4.5847855-15.68927 12.8621292-15.68927h.0000305c8.2773438 0 14.4854431 7.5726776 12.8621368 15.68927l-4.862152 24.31073z" fill="#feea01"/><path d="m128 272-16 56 16 24 16-24z" fill="#00a8e7"/><path d="m504 504h-496l40-48h72l40-40h16l16-16 32 32 32-32 32 32 32-32 16 16h16l40 40h72z" fill="#00a8e7"/><path d="m320 400-32 32-32-32-32 32-32-32 64-64z" fill="#aedef8"/><path d="m256 96c-4.4179688 0-8-3.5820313-8-8v-80c0-4.4179688 3.5820313-8 8-8s8 3.5820313 8 8v80c0 4.4179688-3.5820312 8-8 8z" fill="#ffec00"/><path d="m256 8h80v32l-80 24z" fill="#e22526"/><path d="m320 48v32l96-56h-80v16z" fill="#be202e"/><path d="m510.1455078 498.8789063-40-48c-1.5195312-1.8242188-3.7714844-2.8789063-6.1455078-2.8789063h-9.1362305l-14.8637695-96.6113281v-45.3154297l38.9931641-70.1884766c.6601562-1.1884765 1.0068359-2.5253906 1.0068359-3.8847656v-32c0-3.2353516-1.9492188-6.1523438-4.9384766-7.390625-2.9912109-1.2392578-6.4316406-.5537109-8.71875 1.7333984l-63.3164063 63.3168945 1.6806641-8.4018555c1.2451172-6.2285156-.3496094-12.6171875-4.3769531-17.5292969-4.0263672-4.9111327-9.9785156-7.7285155-16.3300781-7.7285155s-12.3037109 2.8173828-16.3300781 7.7285156c-4.0273438 4.9121094-5.6220703 11.3007813-4.3769531 17.5302734l1.3945313 6.9731445-51.2832031-57.6938477 29.90625-67.2890625c1.7373047-3.9082031.0927734-8.4912109-3.7324219-10.4042969l-75.5781251-37.7890623v-13.1030274l48-14.3999023v24.4472656c0 2.8642578 1.53125 5.5107422 4.015625 6.9375 1.2333984.7080078 2.609375 1.0625 3.984375 1.0625 1.3925781 0 2.7861328-.3632813 4.03125-1.0898438l96-56c3.1220703-1.8212891 4.6347656-5.5087891 3.6914063-8.9980469s-4.1083985-5.9121093-7.7226563-5.9121093h-72v-8c0-4.4179688-3.5820313-8-8-8h-80c-4.4179688 0-8 3.5820313-8 8v56 19.0556641l-75.578125 37.7890625c-3.8251953 1.9130859-5.4697266 6.4960938-3.7324219 10.4042969l29.9064941 67.2890625-51.2836914 57.6938477 1.3947754-6.9741211c1.2451172-6.2285156-.3496094-12.6171875-4.3769531-17.5292969-4.0263672-4.9111329-9.9785156-7.7285157-16.3300781-7.7285157s-12.3037109 2.8173828-16.3300781 7.7285156c-4.0273438 4.9121094-5.6220703 11.3007813-4.3769531 17.5302734l1.6801758 8.4008789-63.315918-63.3168945c-2.2890625-2.2871094-5.7304688-2.9716797-8.71875-1.7333984-2.9892578 1.2382813-4.9384766 4.1552734-4.9384766 7.390625v32c0 1.359375.3466797 2.6962891 1.0068359 3.8847656l38.9931641 70.1884766v45.3154297l-14.8637695 96.6113281h-9.1362305c-2.3740234 0-4.6259766 1.0546875-6.1455078 2.8789063l-40 48c-1.9873047 2.3837891-2.4160156 5.703125-1.0996094 8.5146484 1.3173828 2.8105469 4.140625 4.6064453 7.2451172 4.6064453h496c3.1044922 0 5.9277344-1.7958984 7.2451172-4.6064453 1.3164062-2.8115234.8876953-6.1308594-1.0996094-8.5146484zm-73.8642578-50.8789063-45.625-68.4375c-1.3291016-1.9941406-3.4824219-3.2871094-5.8681641-3.5234375-2.3847656-.234375-4.75.609375-6.4453125 2.3037109l-29.6572265 29.6572266h-4.6855469v-48h81.1362305l13.5385742 88zm-19.2290039 0h-21.7387695l-31.9990234-32 19.4423828-19.4433594zm-91.3950195-53.6572266c-.0029297-.0029297-.0058594-.0048828-.0083008-.0073242l-5.8530273-5.8535156-7.3632813-117.8110352 15.5673828 35.0263672v90.9892578l-2.3349609-2.3354492c-.0029297-.0024414-.0048828-.0053711-.0078125-.0083008zm-139.3144532 0c-.0026855.0029297-.0048828.0058594-.0075684.0083008l-2.335205 2.3354492v-90.9892578l15.5673828-35.0263672-7.3630371 117.8110352-5.8532715 5.8535156c-.0026855.0024414-.0056152.0043946-.0083008.0073242zm64.6396485-252.2216796c-.4130859-2.0673828.4873047-3.5488281 1.0605469-4.2480469.5732421-.7001953 1.8496093-1.8730469 3.9570312-1.8730469s3.3837891 1.1728516 3.9570313 1.8730469c.5732422.6992188 1.4736328 2.1806641 1.0605469 4.2470703l-3.5761719 17.8798828h-2.8828125zm12.3085937 80.5195312-7.2910156 10.9375-7.2910156-10.9375 7.2910156-25.5205078zm32.7089844 33.359375v8c0 .1660156.0048828.3330078.015625.4990234l6.6796875 106.8823242-4.0791016-4.0791016-3.7041016-3.7045898-31.3935547-86.3320313c-1.149414-3.1611327-4.1542968-5.2656249-7.5185546-5.2656249s-6.3691406 2.1044922-7.5185547 5.265625l-31.3935547 86.3320313-3.7043457 3.7045898-4.0788574 4.0791016 6.6796875-106.8823242c.0107422-.1660157.015625-.3330079.015625-.4990235v-8zm-27.8422852 80.8432617-6.5004883-6.5004883c-3.125-3.1230469-8.1894531-3.1230469-11.3144531 0l-6.5004883 6.5004883 12.1577149-33.434082zm-62.5026855 60.815918c.0007324-.0009766.0014648-.0014648.0021973-.0019531l24-24c.0019531-.0019531.003418-.0039063.0053711-.0058594l26.3374023-26.3378906 26.3374023 26.3378906c.0019531.0019531.003418.0039063.0053711.0058594l24 24c.0009766.0009766.0024414.0019531.003418.0029297l2.3393555 2.3398437-20.6855469 20.6865234-26.3427734-26.34375c-3.125-3.1230469-8.1894531-3.1230469-11.3144531 0l-26.3427735 26.34375-20.685791-20.6865234zm185.6359863-71.0185547-7.2910156 10.9375-7.2910156-10.9375 7.2910156-25.5205078zm72.7089844-107.3271484v10.6132813l-38.9931641 70.1884766c-.6601562 1.1884764-1.0068359 2.5253905-1.0068359 3.8847655v40h-25.0522461l7.7084961-11.5625c1.3017578-1.953125 1.6806641-4.3789063 1.0361328-6.6357422l-13.0864258-45.8017578h5.394043c2.1220703 0 4.15625-.8427734 5.6572266-2.3427734zm-83.9570312 22.5595703c.5732421-.7001953 1.8496093-1.8730469 3.9570312-1.8730469s3.3837891 1.1728516 3.9570313 1.8730469c.5732422.6992188 1.4736328 2.1806641 1.0605469 4.2470703l-3.5761719 17.8798828h-2.8828125l-3.5761719-17.8789063c-.413086-2.0673828.4873047-3.5488281 1.0605469-4.2480468zm-12.0429688 38.1269531h5.394043l-13.0864258 45.8017578c-.6445313 2.2568359-.265625 4.6826172 1.0361328 6.6357422l7.7084961 11.5625h-25.0522461v-40c0-1.1191406-.2353516-2.2265625-.6894531-3.2490234l-31.3105469-70.4487305v-9.2607422l50.0205078 56.2729492c1.5185547 1.7080078 3.694336 2.6855469 5.9794922 2.6855469zm-42.4150391-148.2636719-28.8955078 65.0146484c-.4541015 1.022461-.6894531 2.1298829-.6894531 3.2490235v40h-25.0522461l7.7084961-11.5625c1.3017578-1.953125 1.6806641-4.3789063 1.0361328-6.6357422l-13.0864258-45.8017578h5.394043c2.5175781 0 4.8896484-1.1855469 6.4003906-3.2001953l24-32c2.2246094-2.9658203 2.1191406-7.0722656-.2548828-9.9208984l-15.515625-18.6201172zm60.8232422-99.7363281-58.4082031 34.0712891v-13.1269532l11.5112305-5.7556152c.0029297-.0014648.0058594-.0031738.0092773-.0046387l.0576172-.0288086c.3515625-.1757813.6845703-.3776855 1.0009766-.5986328.0922852-.0644531.1728516-.1411133.262207-.2092285.2290039-.1750488.4536133-.3540039.6616211-.5512695.105957-.1008301.2006836-.2109375.3007813-.3173828.1728516-.1828613.3408203-.3684082.4946289-.5661621.0966797-.1235352.1845703-.2519531.2734375-.3811035.1367188-.1982422.2651367-.4003906.3833008-.6103516.0791016-.1394043.1533203-.2797852.2236328-.4240723.1064453-.2182617.1992188-.4414063.2856445-.6689453.0551758-.1459961.112793-.2902832.159668-.4399414.0791016-.2531738.1381836-.512207.1923828-.7736816.0273438-.1325684.0634766-.2617188.0839844-.3964844.0620116-.3996582.0996093-.8056641.0996093-1.2180176v-8zm-58.4082031-8v10.0478516l-64 19.2001953v-37.2480469h64zm-72 76.4960938 29.8037109 35.765625-9.9511719 13.2680664.8544922-4.2719727c1.2451172-6.2285156-.3496094-12.6171875-4.3769531-17.5292969-4.0263672-4.9111328-9.9785156-7.7285156-16.3300781-7.7285156s-12.3037109 2.8173828-16.3300781 7.7285156c-4.0273438 4.9121094-5.6220703 11.3007813-4.3769531 17.5302734l.854248 4.270752-9.9509277-13.2678223zm-30.6298828 11.7626953-15.515625 18.6201172c-2.3740234 2.8486328-2.4794922 6.9550781-.2548828 9.9208984l24 32c1.5107422 2.0146484 3.8828125 3.2001953 6.4003906 3.2001953h5.3937988l-13.0861816 45.8017578c-.6445313 2.2568359-.265625 4.6826172 1.0361328 6.6357422l7.708252 11.5625h-25.052002v-40c0-1.1191406-.2353516-2.2265625-.6894531-3.2490234l-28.8955078-65.0146484zm-75.390625 165.055664 50.0205078-56.2729492v9.2607422l-31.3105469 70.4487305c-.4541015 1.0224609-.6894531 2.1298828-.6894531 3.2490234v40h-25.052002l7.708252-11.5625c1.3017578-1.953125 1.6806641-4.3789063 1.0361328-6.6357422l-13.0861816-45.8017578h5.3937988c2.2851563 0 4.4609375-.9775391 5.9794922-2.6855469zm-14.6884766 49.3261719-7.2910156 10.9375-7.2910156-10.9375 7.2910156-25.5205078zm-11.2480468-84.7675781c.5732421-.7001953 1.8496093-1.8730469 3.9570312-1.8730469s3.3837891 1.1728516 3.9570313 1.8730469c.5732422.6992188 1.4736328 2.1806641 1.0605469 4.2470703l-3.5761719 17.8798828h-2.8828125l-3.5761719-17.8789063c-.413086-2.0673828.4873047-3.5488281 1.0605469-4.2480468zm-76.0429688-11.9462891v-10.6132813l58.3427734 58.34375c1.5009766 1.5000001 3.5351563 2.3427735 5.6572266 2.3427735h5.3937988l-13.0861816 45.8017578c-.6445313 2.2568359-.265625 4.6826172 1.0361328 6.6357422l7.708252 11.5625h-25.052002v-40c0-1.359375-.3466797-2.6962891-1.0068359-3.8847656zm38.8637695 130.0732422h81.1362305v48h-4.6855469l-29.6572266-29.6572266c-1.6953125-1.6943359-4.0751953-2.5380859-6.4453125-2.3037109-2.3857422.2363281-4.5390625 1.5292969-5.8681641 3.5234375l-45.6249999 68.4375h-2.3935547zm61.8220215 56-31.9992676 32h-21.7387695l34.2954102-51.4433594zm-123.6057129 80 26.6669922-32h68.2529297c2.1220703 0 4.15625-.8427734 5.6572266-2.3427734l37.65625-37.6572266h12.6865234c2.1220703 0 4.15625-.8427734 5.6572266-2.3427734l10.3427734-10.3427735 26.3427734 26.3427734c3.125 3.1230469 8.1894531 3.1230469 11.3144531 0l26.3427735-26.3437499 26.3427734 26.34375c1.5625 1.5615234 3.609375 2.3427734 5.6572266 2.3427734s4.0947266-.78125 5.6572266-2.3427734l26.3427734-26.3427735 10.3427734 10.3427734c1.5009766 1.5000001 3.5351563 2.3427735 5.6572266 2.3427735h12.6865234l37.65625 37.6572266c1.5009766 1.5 3.5351563 2.3427734 5.6572266 2.3427734h68.2529297l26.6669922 32z"/></svg>